<?xml version="1.0" standalone="no"?>
<!DOCTYPE svg PUBLIC "-//W3C//DTD SVG 20010904//EN"
 "http://www.w3.org/TR/2001/REC-SVG-20010904/DTD/svg10.dtd">
<svg version="1.0" xmlns="http://www.w3.org/2000/svg"
 width="1162.000000pt" height="400.000000pt" viewBox="0 0 1162.000000 400.000000"
 preserveAspectRatio="xMidYMid meet">
<metadata>
Created by potrace 1.16, written by Peter Selinger 2001-2019
</metadata>
<g transform="translate(0.000000,400.000000) scale(0.100000,-0.100000)"
fill="#000000" stroke="none">
<path d="M149 3946 c-59 -21 -96 -53 -123 -108 l-26 -52 0 -1770 c0 -1702 1
-1773 19 -1811 23 -49 64 -89 113 -109 34 -14 603 -16 5695 -16 l5657 0 43 21
c23 11 54 34 68 51 l25 30 0 1834 c0 2063 8 1861 -79 1912 l-46 27 -5655 2
c-4605 2 -5662 0 -5691 -11z m11203 -143 c66 -30 132 -95 159 -156 l24 -52 0
-1555 0 -1555 -28 -57 c-16 -32 -48 -75 -73 -97 -88 -77 148 -71 -2603 -71
l-2466 0 -51 24 c-66 31 -120 85 -153 155 l-26 56 0 1540 c0 1224 3 1547 13
1576 22 62 68 126 115 158 94 64 -86 60 2597 58 l2445 -2 47 -22z m-9992 -771
l5 -154 25 27 c79 85 240 88 313 7 40 -44 46 -87 47 -324 l0 -228 -79 0 -80 0
-3 209 c-3 195 -4 212 -24 238 -18 24 -29 28 -76 31 -66 4 -102 -20 -118 -76
-5 -20 -10 -119 -10 -219 l0 -183 -80 0 -80 0 0 415 0 416 78 -3 77 -3 5 -153z
m-240 73 l0 -75 -125 0 -125 0 0 -340 0 -340 -90 0 -90 0 0 340 0 340 -125 0
-125 0 0 75 0 75 340 0 340 0 0 -75z m1158 -161 c97 -48 152 -138 160 -261 l5
-73 -216 0 -215 0 7 -33 c17 -73 60 -107 136 -107 43 0 110 32 125 60 9 17 21
20 80 20 39 0 70 -2 70 -5 0 -19 -32 -77 -60 -109 -58 -66 -100 -81 -220 -81
-89 0 -111 3 -146 22 -97 52 -145 132 -152 254 -7 116 15 180 87 250 68 67
118 87 217 88 56 1 80 -4 122 -25z m-1090 -949 c148 -35 277 -134 337 -259 48
-99 65 -181 65 -311 0 -185 -46 -316 -149 -427 -100 -108 -203 -150 -371 -150
-168 0 -272 43 -379 157 -97 103 -141 233 -141 420 0 143 14 207 71 316 67
129 171 212 310 249 90 23 173 25 257 5z m960 -11 c20 -6 22 -12 22 -85 l0
-79 -64 0 c-84 0 -107 -17 -114 -88 l-5 -52 152 0 151 0 0 68 c0 84 23 136 79
184 50 43 104 58 205 58 108 0 106 2 106 -91 l0 -79 -59 0 c-82 0 -111 -23
-111 -91 l0 -49 80 0 81 0 -3 -72 -3 -73 -77 -3 -78 -3 0 -329 0 -330 -115 0
-115 0 0 330 0 330 -145 0 -145 0 0 -330 0 -330 -115 0 -115 0 0 330 0 330
-65 0 -65 0 0 75 0 75 70 0 70 0 0 53 c0 123 53 206 156 242 39 14 180 20 222
9z m872 -89 l0 -95 -115 0 -115 0 0 95 0 95 115 0 115 0 0 -95z m1522 -222
c129 -57 217 -210 218 -380 l0 -63 -275 0 -275 0 0 -51 c0 -54 10 -80 44 -118
29 -32 60 -42 128 -42 67 -1 134 32 158 75 13 25 17 26 106 26 l94 0 -10 -25
c-67 -176 -188 -254 -379 -243 -196 11 -323 135 -352 346 -36 248 105 465 323
501 75 12 154 3 220 -26z m-928 12 c79 -17 142 -51 181 -97 38 -45 75 -126 75
-165 l0 -33 -104 0 -103 0 -6 28 c-17 87 -135 140 -216 97 -78 -40 -116 -137
-109 -274 6 -109 28 -164 81 -202 31 -23 51 -29 89 -29 88 0 148 47 164 129
l7 31 104 0 105 0 -7 -37 c-20 -111 -98 -213 -198 -259 -56 -26 -73 -29 -167
-29 -95 0 -111 3 -161 28 -150 73 -229 209 -229 392 0 134 45 250 127 327 105
97 215 125 367 93z m-594 -410 l0 -405 -120 0 -120 0 0 405 0 405 120 0 120 0
0 -405z"/>
<path d="M6325 3756 c-60 -28 -97 -66 -124 -126 -20 -45 -21 -57 -21 -1586 l0
-1540 26 -52 c28 -57 69 -96 129 -123 38 -18 141 -19 2494 -19 1912 0 2463 3
2495 12 25 8 61 32 93 63 90 88 83 -48 83 1660 0 1711 7 1572 -85 1662 -32 31
-68 56 -92 62 -26 8 -782 11 -2493 11 l-2455 0 -50 -24z m1534 -161 c63 -22
98 -51 131 -108 25 -43 30 -63 30 -117 0 -219 -263 -319 -417 -158 -64 66 -82
173 -43 253 23 49 35 63 80 97 62 47 145 59 219 33z m2496 -466 c100 -25 179
-134 178 -244 -1 -172 -158 -268 -305 -188 -115 63 -160 207 -100 323 30 59
57 84 118 105 48 17 55 18 109 4z m-2246 -63 c143 -39 231 -153 251 -327 13
-113 13 -684 0 -731 -24 -85 -119 -116 -182 -59 l-33 29 -3 336 -3 336 -24 0
-25 0 0 -940 0 -940 -32 -36 c-69 -74 -189 -62 -224 23 -11 26 -14 140 -14
578 l0 545 -35 0 -35 0 0 -545 c0 -602 2 -586 -63 -625 -42 -26 -112 -26 -154
0 -54 33 -63 63 -63 215 l0 135 -270 0 -270 0 0 395 0 394 78 3 77 3 3 60 c4
72 27 102 84 111 l38 7 0 406 c0 456 2 475 66 549 72 85 98 90 474 91 235 1
317 -3 359 -13z m2415 -433 c57 -28 96 -75 113 -133 13 -47 15 -91 9 -300 -3
-135 -9 -309 -13 -388 l-6 -143 -21 19 c-52 48 -85 57 -211 57 -66 0 -141 -4
-167 -9 l-48 -8 0 66 0 67 148 172 c244 284 242 281 242 335 -1 100 -82 177
-185 176 -62 -1 -104 -22 -173 -85 -30 -27 -58 -49 -64 -49 -20 0 1 93 30 134
31 45 110 93 173 106 55 11 133 4 173 -17z m-72 -154 c28 -15 58 -69 58 -105
0 -41 -27 -79 -178 -254 -217 -250 -263 -298 -306 -319 -43 -22 -490 -91 -587
-91 -71 0 -93 24 -87 97 7 87 11 89 305 158 l257 60 180 219 c195 238 223 262
300 251 21 -3 47 -10 58 -16z m328 -994 l0 -975 -45 0 -45 0 -2 303 -3 302
-347 3 -348 2 0 -305 0 -305 -54 0 c-94 0 -86 -35 -86 381 l0 369 420 0 420 0
0 600 0 600 45 0 45 0 0 -975z m-247 191 c56 -28 87 -79 87 -144 0 -59 -15
-94 -57 -134 -51 -48 -85 -56 -339 -72 -131 -9 -280 -18 -331 -22 l-92 -6 -17
-51 c-10 -29 -66 -187 -125 -352 -124 -342 -131 -355 -218 -355 -80 0 -132 64
-116 143 12 55 203 761 214 788 14 39 75 94 124 113 23 8 177 38 342 65 338
56 457 62 528 27z m-783 -26 l0 -30 -345 0 -345 0 0 -555 0 -555 -70 0 -70 0
0 550 0 550 -187 2 -188 3 -3 33 -3 32 605 0 606 0 0 -30z"/>
<path d="M7440 2343 c0 -358 7 -473 26 -473 12 0 14 69 14 390 0 383 0 390
-20 390 -20 0 -20 -7 -20 -307z"/>
<path d="M7164 1936 c-3 -13 -4 -35 -2 -47 3 -23 6 -24 103 -24 l100 0 3 38 3
37 -50 0 c-27 0 -53 5 -56 10 -3 6 -26 10 -50 10 -39 0 -45 -3 -51 -24z"/>
<path d="M2094 2840 c-21 -8 -74 -65 -74 -80 0 -5 -3 -15 -6 -24 -5 -14 10
-16 131 -16 l137 0 -6 26 c-21 81 -106 125 -182 94z"/>
<path d="M970 1787 c-55 -18 -134 -102 -160 -172 -27 -73 -37 -222 -21 -309
31 -164 133 -258 281 -258 183 0 290 142 290 382 0 142 -36 239 -114 307 -25
22 -62 45 -84 51 -48 15 -145 14 -192 -1z"/>
<path d="M4300 1519 c-49 -20 -89 -70 -104 -131 l-6 -28 175 0 175 0 -6 28
c-21 92 -77 142 -158 141 -28 0 -62 -5 -76 -10z"/>
</g>
</svg>
